<?xml version="1.0" standalone="no"?><!DOCTYPE svg PUBLIC "-//W3C//DTD SVG 1.1//EN" "http://www.w3.org/Graphics/SVG/1.1/DTD/svg11.dtd"><svg t="1543470183790" class="icon" style="" viewBox="0 0 1024 1024" version="1.1" xmlns="http://www.w3.org/2000/svg" p-id="36382" xmlns:xlink="http://www.w3.org/1999/xlink" width="16" height="16" fill="#5372FF"><defs><style type="text/css"></style></defs><path d="M756.887552 454.069765c0-179.339797-141.009696-324.457818-315.256882-324.457818s-315.256882 145.146551-315.256882 324.457818c0 178.826257 141.023961 323.944277 315.256882 323.944277s315.256882-145.103756 315.256882-323.944277z m157.37167 549.773766L722.137969 806.629667l-1.526356-2.082693c-76.132397 63.864482-173.220105 102.151789-278.980943 102.151789C197.91285 906.698763 0.684721 703.921542 0.684721 454.069765 0.684721 203.704447 197.91285 0.870166 441.63067 0.870166c243.20428 0 440.945949 202.848546 440.945949 453.213864A461.230804 461.230804 0 0 1 805.944946 708.971359l6.133957 5.106876 192.106988 197.299454a67.316617 67.316617 0 0 1 0 92.480107 63.208292 63.208292 0 0 1-89.384598 0.48501l-0.485011-0.48501z" p-id="36383"></path></svg>